<?xml version="1.0" encoding="UTF-8" standalone="no"?>
<!DOCTYPE svg PUBLIC "-//W3C//DTD SVG 1.1//EN"
 "http://www.w3.org/Graphics/SVG/1.1/DTD/svg11.dtd">
<!-- Generated by graphviz version 2.47.0 (20210316.0004)
 -->
<!-- Title: dependencies Pages: 1 -->
<svg width="944pt" height="284pt"
 viewBox="0.00 0.00 944.00 284.00" xmlns="http://www.w3.org/2000/svg" xmlns:xlink="http://www.w3.org/1999/xlink">
<g id="graph0" class="graph" transform="scale(1 1) rotate(0) translate(4 280)">
<title>dependencies</title>
<polygon fill="white" stroke="transparent" points="-4,4 -4,-280 940,-280 940,4 -4,4"/>
<text text-anchor="start" x="447.01" y="-42.4" font-family="Times-12" font-weight="bold" font-size="14.00">Legend</text>
<polygon fill="#ffffb3" stroke="transparent" points="234,-10 234,-30 254,-30 254,-10 234,-10"/>
<text text-anchor="start" x="257.63" y="-15.4" font-family="Times-12" font-size="14.00"> &#160;Declarations</text>
<polygon fill="#8dd3c7" stroke="transparent" points="347,-10 347,-30 367,-30 367,-10 347,-10"/>
<text text-anchor="start" x="370.73" y="-15.4" font-family="Times-12" font-size="14.00"> &#160;Module</text>
<polygon fill="#80b1d3" stroke="transparent" points="433,-10 433,-30 453,-30 453,-10 433,-10"/>
<text text-anchor="start" x="456.78" y="-15.4" font-family="Times-12" font-size="14.00"> &#160;Bootstrap</text>
<polygon fill="#fdb462" stroke="transparent" points="530,-10 530,-30 550,-30 550,-10 530,-10"/>
<text text-anchor="start" x="553.67" y="-15.4" font-family="Times-12" font-size="14.00"> &#160;Providers</text>
<polygon fill="#fb8072" stroke="transparent" points="626,-10 626,-30 646,-30 646,-10 626,-10"/>
<text text-anchor="start" x="649.73" y="-15.4" font-family="Times-12" font-size="14.00"> &#160;Exports</text>
<g id="clust1" class="cluster">
<title>cluster_AppModule</title>
<polygon fill="none" stroke="black" stroke-dasharray="1,5" points="8,-70 8,-268 732,-268 732,-70 8,-70"/>
</g>
<g id="clust2" class="cluster">
<title>cluster_AppModule_declarations</title>
<polygon fill="none" stroke="black" points="602,-78 602,-130 724,-130 724,-78 602,-78"/>
</g>
<g id="clust4" class="cluster">
<title>cluster_AppModule_imports</title>
<polygon fill="none" stroke="black" points="174,-78 174,-130 594,-130 594,-78 174,-78"/>
</g>
<g id="clust6" class="cluster">
<title>cluster_AppModule_bootstrap</title>
<polygon fill="none" stroke="black" points="326,-208 326,-260 450,-260 450,-208 326,-208"/>
</g>
<g id="clust7" class="cluster">
<title>cluster_AppModule_providers</title>
<polygon fill="none" stroke="black" points="16,-78 16,-130 166,-130 166,-78 16,-78"/>
</g>
<g id="clust14" class="cluster">
<title>cluster_ResourceModule</title>
<polygon fill="none" stroke="black" stroke-dasharray="1,5" points="740,-70 740,-195 928,-195 928,-70 740,-70"/>
</g>
<g id="clust16" class="cluster">
<title>cluster_ResourceModule_imports</title>
<polygon fill="none" stroke="black" points="748,-78 748,-130 920,-130 920,-78 748,-78"/>
</g>
<!-- AppComponent -->
<g id="node1" class="node">
<title>AppComponent</title>
<polygon fill="#ffffb3" stroke="black" points="715.94,-122 610.06,-122 610.06,-86 715.94,-86 715.94,-122"/>
<text text-anchor="middle" x="663" y="-99.8" font-family="Times,serif" font-size="14.00">AppComponent</text>
</g>
<!-- AppModule -->
<g id="node2" class="node">
<title>AppModule</title>
<polygon fill="#8dd3c7" stroke="black" points="429.66,-187 426.66,-191 405.66,-191 402.66,-187 346.34,-187 346.34,-151 429.66,-151 429.66,-187"/>
<text text-anchor="middle" x="388" y="-164.8" font-family="Times,serif" font-size="14.00">AppModule</text>
</g>
<!-- AppComponent&#45;&gt;AppModule -->
<g id="edge1" class="edge">
<title>AppComponent&#45;&gt;AppModule</title>
<path fill="none" stroke="black" d="M663,-122.28C663,-143.32 663,-175 663,-175 663,-175 439.77,-175 439.77,-175"/>
<polygon fill="black" stroke="black" points="439.77,-171.5 429.77,-175 439.77,-178.5 439.77,-171.5"/>
</g>
<!-- AppComponent  -->
<g id="node6" class="node">
<title>AppComponent </title>
<polygon fill="#80b1d3" stroke="black" points="442.44,-252 333.56,-252 333.56,-216 442.44,-216 442.44,-252"/>
<text text-anchor="middle" x="388" y="-229.8" font-family="Times,serif" font-size="14.00">AppComponent </text>
</g>
<!-- AppModule&#45;&gt;AppComponent  -->
<g id="edge5" class="edge">
<title>AppModule&#45;&gt;AppComponent </title>
<path fill="none" stroke="black" stroke-dasharray="1,5" d="M388,-187.11C388,-187.11 388,-205.99 388,-205.99"/>
<polygon fill="black" stroke="black" points="384.5,-205.99 388,-215.99 391.5,-205.99 384.5,-205.99"/>
</g>
<!-- AlertsComponent -->
<g id="node3" class="node">
<title>AlertsComponent</title>
<polygon fill="#8dd3c7" stroke="black" points="585.54,-122 582.54,-126 561.54,-126 558.54,-122 470.46,-122 470.46,-86 585.54,-86 585.54,-122"/>
<text text-anchor="middle" x="528" y="-99.8" font-family="Times,serif" font-size="14.00">AlertsComponent</text>
</g>
<!-- AlertsComponent&#45;&gt;AppModule -->
<g id="edge2" class="edge">
<title>AlertsComponent&#45;&gt;AppModule</title>
<path fill="none" stroke="black" d="M528,-122.02C528,-139.37 528,-163 528,-163 528,-163 440,-163 440,-163"/>
<polygon fill="black" stroke="black" points="440,-159.5 430,-163 440,-166.5 440,-159.5"/>
</g>
<!-- AppRoutingModule -->
<g id="node4" class="node">
<title>AppRoutingModule</title>
<polygon fill="#8dd3c7" stroke="black" points="452.27,-122 449.27,-126 428.27,-126 425.27,-122 323.73,-122 323.73,-86 452.27,-86 452.27,-122"/>
<text text-anchor="middle" x="388" y="-99.8" font-family="Times,serif" font-size="14.00">AppRoutingModule</text>
</g>
<!-- AppRoutingModule&#45;&gt;AppModule -->
<g id="edge3" class="edge">
<title>AppRoutingModule&#45;&gt;AppModule</title>
<path fill="none" stroke="black" d="M388,-122.11C388,-122.11 388,-140.99 388,-140.99"/>
<polygon fill="black" stroke="black" points="384.5,-140.99 388,-150.99 391.5,-140.99 384.5,-140.99"/>
</g>
<!-- SidebarComponent -->
<g id="node5" class="node">
<title>SidebarComponent</title>
<polygon fill="#8dd3c7" stroke="black" points="306.1,-122 303.1,-126 282.1,-126 279.1,-122 181.9,-122 181.9,-86 306.1,-86 306.1,-122"/>
<text text-anchor="middle" x="244" y="-99.8" font-family="Times,serif" font-size="14.00">SidebarComponent</text>
</g>
<!-- SidebarComponent&#45;&gt;AppModule -->
<g id="edge4" class="edge">
<title>SidebarComponent&#45;&gt;AppModule</title>
<path fill="none" stroke="black" d="M244,-122.02C244,-139.37 244,-163 244,-163 244,-163 335.96,-163 335.96,-163"/>
<polygon fill="black" stroke="black" points="335.96,-166.5 345.96,-163 335.96,-159.5 335.96,-166.5"/>
</g>
<!-- ConfigService -->
<g id="node7" class="node">
<title>ConfigService</title>
<ellipse fill="#fdb462" stroke="black" cx="91" cy="-104" rx="66.63" ry="18"/>
<text text-anchor="middle" x="91" y="-99.8" font-family="Times,serif" font-size="14.00">ConfigService</text>
</g>
<!-- ConfigService&#45;&gt;AppModule -->
<g id="edge6" class="edge">
<title>ConfigService&#45;&gt;AppModule</title>
<path fill="none" stroke="black" d="M91,-122.28C91,-143.32 91,-175 91,-175 91,-175 336.08,-175 336.08,-175"/>
<polygon fill="black" stroke="black" points="336.08,-178.5 346.08,-175 336.08,-171.5 336.08,-178.5"/>
</g>
<!-- ResourceRoutingModule -->
<g id="node8" class="node">
<title>ResourceRoutingModule</title>
<polygon fill="#8dd3c7" stroke="black" points="912.25,-122 909.25,-126 888.25,-126 885.25,-122 755.75,-122 755.75,-86 912.25,-86 912.25,-122"/>
<text text-anchor="middle" x="834" y="-99.8" font-family="Times,serif" font-size="14.00">ResourceRoutingModule</text>
</g>
<!-- ResourceModule -->
<g id="node9" class="node">
<title>ResourceModule</title>
<polygon fill="#8dd3c7" stroke="black" points="889.64,-187 886.64,-191 865.64,-191 862.64,-187 778.36,-187 778.36,-151 889.64,-151 889.64,-187"/>
<text text-anchor="middle" x="834" y="-164.8" font-family="Times,serif" font-size="14.00">ResourceModule</text>
</g>
<!-- ResourceRoutingModule&#45;&gt;ResourceModule -->
<g id="edge7" class="edge">
<title>ResourceRoutingModule&#45;&gt;ResourceModule</title>
<path fill="none" stroke="black" d="M834,-122.11C834,-122.11 834,-140.99 834,-140.99"/>
<polygon fill="black" stroke="black" points="830.5,-140.99 834,-150.99 837.5,-140.99 830.5,-140.99"/>
</g>
</g>
</svg>
